<?xml version="1.0" standalone="no"?>
<!DOCTYPE svg PUBLIC "-//W3C//DTD SVG 20010904//EN" "http://www.w3.org/TR/2001/REC-SVG-20010904/DTD/svg10.dtd">
<!-- Created using Krita: https://krita.org -->
<svg xmlns="http://www.w3.org/2000/svg" 
    xmlns:xlink="http://www.w3.org/1999/xlink"
    xmlns:krita="http://krita.org/namespaces/svg/krita"
    xmlns:sodipodi="http://sodipodi.sourceforge.net/DTD/sodipodi-0.dtd"
    width="122.88pt"
    height="122.88pt"
    viewBox="0 0 122.88 122.88">
<defs/>
<ellipse id="shape0" transform="translate(5.75999979481102, 5.75999979481102)" rx="56.2799979951327" ry="55.7999980122318" cx="56.2799979951327" cy="55.7999980122318" fill="#808080" stroke="none" stroke-width="1.8" stroke-linecap="square" stroke-linejoin="bevel"/><ellipse id="shape1" transform="translate(10.3199996323697, 9.59999965801838)" rx="51.9599981490244" ry="51.719998157574" cx="51.9599981490244" cy="51.719998157574" fill="#ffffff" stroke="none" stroke-width="1.8" stroke-linecap="square" stroke-linejoin="bevel"/><path id="shape2" transform="translate(22.8652384932155, 44.8049906684695)" fill="#fff3ec" fill-rule="evenodd" stroke="none" stroke-width="1.8" stroke-linecap="square" stroke-linejoin="bevel" d="M4.59749 6.83383C5.57795 10.4038 4.64944 15.2057 4.18667 17.8248C3.25901 20.9705 2.2332 24.7983 0 28.4037C0.509273 34.3284 2.51379 41.4691 4.184 46.4712C6.44101 49.3625 9.426 51.1145 11.5586 52.5424C13.8695 53.8478 16.2599 54.8443 18.6734 55.5889C20.4494 58.5943 24.9532 65.0673 28.9107 66.7283C34.0055 65.1757 42.957 58.1025 44.7562 56.1381C46.7817 55.7098 48.9346 55.1887 50.2775 54.7931C53.7968 49.9313 56.7161 43.0993 58.1119 36.1836C58.3195 31.1947 57.8608 25.5059 57.6567 19.7629C54.1365 17.6107 47.667 14.4407 45.3292 12.2033C38.5656 8.62002 31.9029 1.13319 30.5014 0C30.7914 2.80449 32.1061 5.17372 29.9647 16.9073C29.1594 21.3196 28.5486 24.5675 27.4736 27.2498C25.2031 27.03 23.6364 26.7799 20.749 25.8211C19.7956 25.5045 18.6714 24.9863 18.0013 24.5852C17.666 25.4612 17.3155 26.8734 16.6869 27.6869C15.3846 26.6151 14.5506 25.4855 12.2621 22.9775C9.78306 20.2609 5.30091 10.1117 4.59749 6.83383Z" sodipodi:nodetypes="cccccccccccccccccccc"/><path id="shape3" transform="translate(42.0214534184217, 100.858326450429)" fill="#000000" fill-opacity="0.152941176470588" fill-rule="evenodd" stroke="none" stroke-width="0.6" stroke-linecap="square" stroke-linejoin="bevel" d="M9.54855 11.0567C13.2927 10.6255 26.1377 2.60206 25.7035 0.706673C25.6523 0.482801 24.0732 0.287542 23.4535 0.436673C21.4963 2.77427 16.3497 6.60006 9.99855 9.50417C6.0482 6.88278 2.34205 2.09695 1.40355 0.166673C1.06532 0.00228589 0.124021 -0.0639624 0.0535463 0.076673C-0.6995 1.57942 6.69193 9.47047 9.54855 11.0567Z" sodipodi:nodetypes="ccccccc"/><ellipse id="shape01" transform="translate(59.6699998645699, 66.7799956309088)" rx="9.24" ry="9.58499937289997" cx="9.24" cy="9.58499937289997" fill="#d88f57" stroke="none" stroke-width="1.8" stroke-linecap="square" stroke-linejoin="bevel"/><path id="shape4" transform="translate(65.6892230532883, 78.0816291072701)" fill="#ffddbf" fill-rule="evenodd" stroke="none" stroke-width="1.8" stroke-linecap="square" stroke-linejoin="bevel" d="M0.100775 7.23837C-0.546925 2.99848 2.07531 1.00615 3.74577 0.308368C5.46163 -0.408382 9.14768 0.0274347 11.4408 2.64837C10.067 5.53008 5.76675 9.56476 0.100775 7.23837Z" sodipodi:nodetypes="cscc"/><path id="shape02" transform="translate(27.4871727416569, 73.4856253121708)" fill="#d88f57" stroke="none" stroke-width="1.8" stroke-linecap="square" stroke-linejoin="bevel" d="M3.89283 0.0743699C0.422432 1.30757 -0.697696 5.51936 0.412825 8.95437C1.54824 12.6922 4.94402 14.32 7.85282 13.7544C11.7504 12.8069 12.6816 9.03187 11.3028 5.11437C10.51 2.19978 6.88914 -0.48489 3.89283 0.0743699Z" sodipodi:nodetypes="ccccc"/><path id="shape5" transform="translate(31.0920493684663, 82.367517617432)" fill="#fedabb" fill-rule="evenodd" stroke="none" stroke-width="1.8" stroke-linecap="square" stroke-linejoin="bevel" d="M0.0704505 4.30248C-0.359307 2.34455 1.27786 0.566893 2.25295 0.207482C3.49267 -0.249471 5.85768 -0.12233 7.74295 2.36748C6.18875 4.89349 3.13379 5.45793 0.0704505 4.30248Z" sodipodi:nodetypes="cscc"/><path id="shape6" transform="translate(33.6149977993937, 100.39499342494)" fill="none" stroke="#000000" stroke-width="1.8" stroke-linecap="round" stroke-linejoin="round" d="M6.585 0C4.272 0.459 1.548 2.271 0 3.945" sodipodi:nodetypes="cc"/><path id="shape7" transform="translate(41.7599985123925, 100.934996404414)" fill="none" stroke="#ff0000" stroke-width="0.96" stroke-linecap="round" stroke-linejoin="round" d="M0 0C2.4345 5.3775 6.2205 8.1975 10.095 10.83C16.2555 8.7435 21.8595 4.8315 26.16 0.405003" sodipodi:nodetypes="ccc"/><path id="shape8" transform="translate(38.5649997755491, 100.934999412552)" fill="none" stroke="#000000" stroke-width="0.48" stroke-linecap="round" stroke-linejoin="round" d="M7.425 9.81C3.99483 7.53515 1.27638 3.4714 0 0" sodipodi:nodetypes="cc"/><path id="shape9" transform="translate(55.7999963600304, 100.919993397339)" fill="none" stroke="#000000" stroke-width="0.48" stroke-linecap="square" stroke-linejoin="bevel" d="M0 12C4.91378 10.0191 11.071 6.40015 14.88 0" sodipodi:nodetypes="cc"/><path id="shape10" transform="translate(103.409996316292, 29.6928169181143)" fill="#820000" fill-rule="evenodd" stroke="none" stroke-width="0.48" stroke-linecap="square" stroke-linejoin="bevel" d="M7.23 51.1272C4.96141 52.1866 1.7262 46.7995 3.39 43.3272C3.32624 41.394 4.67062 37.4561 6.09 36.7872C6.90857 36.4014 9.34537 38.4163 9.99 37.9872C11.352 37.0805 11.4162 31.7735 10.83 29.4072C8.40735 25.9427 4.3269 19.3759 1.17 14.7672C1.99004 10.5826 0.0186117 0.109816 0 0.00718202C1.72054 -0.423718 11.0861 18.6443 10.44 27.7272C11.2179 34.4181 9.43452 50.7889 7.23 51.1272Z" sodipodi:nodetypes="ccccccccc"/><path id="shape11" transform="translate(23.6099991589499, 49.5599997330038)" fill="none" stroke-opacity="0.4" stroke="#ffa798" stroke-width="1.8" stroke-linecap="round" stroke-linejoin="round" d="M0 23.82C3.891 21.18 4.92958 13.7222 5.13 9.54C5.69042 13.8778 10.5344 20.3774 12.9 22.38C16.2856 25.6425 16.6805 25.3805 18.105 22.17C20.4295 23.3695 21.8046 23.1489 23.235 23.745C27.5904 24.566 27.4842 24.6327 28.41 21.9C29.9658 19.0323 31.5605 3.62818 31.89 0C36.6595 4.56182 43.665 9.966 52.08 13.8" sodipodi:nodetypes="cccccccc"/><path id="shape12" transform="translate(11.9399995746663, 73.9199973667783)" fill="#000000" fill-opacity="0.0980392156862745" fill-rule="evenodd" stroke="none" stroke-width="1.8" stroke-linecap="square" stroke-linejoin="bevel" d="M4.335 11.505C6.96277 12.226 11.374 12.8367 13.8 13.185C13.256 11.6433 13.1429 10.2946 12.48 8.34C10.2871 6.43042 3.49228 1.53511 0 0C0.206264 1.55404 2.76794 8.86444 4.335 11.505Z" sodipodi:nodetypes="ccccc"/><path id="shape13" transform="translate(77.9999972214403, 51.3449997011595)" fill="#000000" fill-opacity="0.0980392156862745" fill-rule="evenodd" stroke="none" stroke-width="1.8" stroke-linecap="round" stroke-linejoin="round" d="M32.07 0.494997C31.3027 1.67534 29.816 4.98976 28.65 6.525C27.3748 5.33519 25.2516 2.26342 23.385 0C24.4434 2.55158 25.2361 7.68331 25.5 11.115C18.9789 18.8396 9.25088 22.922 3.18 26.295C2.77072 26.9989 2.52509 28.8668 2.94 29.295C5.4519 30.0397 9.49434 29.2831 10.38 28.935C9.31919 37.0449 3.87834 53.5234 0 58.935C5.05214 57.7519 12.8638 53.4172 17.88 49.575C23.3212 44.7503 29.7661 36.3959 32.3625 29.925C30.2812 29.6124 28.6086 28.5262 28.47 22.725C29.6535 20.2127 30.9591 16.5513 31.53 14.805C32.6628 15.7456 34.8151 16.3418 35.94 16.785C36.0848 15.2089 36.2615 10.558 36.48 7.785C34.9277 6.04814 32.5813 2.39534 32.07 0.494997Z" sodipodi:nodetypes="ccccccccccccccc"/><path id="shape14" transform="translate(30.2399998239975, 59.6999996525347)" fill="#000000" fill-opacity="0.0980392156862745" fill-rule="evenodd" stroke="none" stroke-width="1.8" stroke-linecap="square" stroke-linejoin="bevel" d="M0 0C10.796 1.64334 16.3417 1.95743 22.14 1.74C22.0644 3.9515 21.3089 9.14827 20.16 12.06C17.1799 12.0709 14.4852 11.3766 10.515 9.6C10.5016 10.462 10.1427 11.9629 9.6 12.9C7.44327 11.6631 1.04357 2.8907 0 0Z" sodipodi:nodetypes="cccccc"/><path id="shape15" transform="translate(55.3799963767731, 46.6799969459691)" fill="#000000" fill-opacity="0.0980392156862745" fill-rule="evenodd" stroke="none" stroke-width="1.8" stroke-linecap="square" stroke-linejoin="bevel" d="M25.32 17.46C24.8831 14.8587 24.8474 14.1438 24.6 11.46C20.3326 10.5162 9.15622 4.69179 0 0C5.07834 6.1277 21.7729 16.9852 25.32 17.46Z" sodipodi:nodetypes="cccc"/><path id="shape16" transform="matrix(0.986092443814485 0.166197750441994 -0.166197750441994 0.986092443814485 11.8561326281145 46.1255114749216)" fill="#000000" fill-opacity="0.0980392156862745" fill-rule="evenodd" stroke="none" stroke-width="1.8" stroke-linecap="square" stroke-linejoin="bevel" d="M5.6829 6.31809C5.6829 2.8287 4.06296 2.13656e-16 2.06465 0C0.0663501 -2.13656e-16 2.22045e-16 2.84067 0 6.33005C-2.22045e-16 9.81943 0.0663501 12.6362 2.06465 12.6362C4.06296 12.6362 5.6829 9.80747 5.6829 6.31809Z" sodipodi:nodetypes="ccccc"/><ellipse id="shape17" transform="matrix(0.982993199883288 0.183641958667445 -0.183641958667445 0.982993199883288 18.226846536222 46.6977484297457)" rx="2.69458985721342" ry="4.53830687231141" cx="2.69458985721342" cy="4.53830687231141" fill="#000000" fill-opacity="0.0980392156862745" fill-rule="evenodd" stroke="none" stroke-width="1.8" stroke-linecap="square" stroke-linejoin="bevel"/><ellipse id="shape18" transform="matrix(0.998595108414183 0.0529887672178376 -0.0529887672178376 0.998595108414183 31.3677647461667 45.3062805371833)" rx="3.42" ry="5.34" cx="3.42" cy="5.34" fill="#000000" fill-opacity="0.0980392156862745" fill-rule="evenodd" stroke="none" stroke-width="0.6" stroke-linecap="square" stroke-linejoin="bevel"/><ellipse id="shape19" transform="matrix(0.998778343834241 0.0494147739824021 -0.0494147739824021 0.998778343834241 39.3038054264773 45.021784347849)" rx="2.7" ry="4.26" cx="2.7" cy="4.26" fill="#000000" fill-opacity="0.0980392156862745" fill-rule="evenodd" stroke="none" stroke-width="0.6" stroke-linecap="square" stroke-linejoin="bevel"/><ellipse id="shape20" transform="translate(45.6899999994762, 44.9400000010476)" rx="2.46" ry="3.24" cx="2.46" cy="3.24" fill="#000000" fill-opacity="0.0980392156862745" fill-rule="evenodd" stroke="none" stroke-width="0.6" stroke-linecap="square" stroke-linejoin="bevel"/><ellipse id="shape03" transform="matrix(0.920102995119187 -0.391676497090013 0.391676497090013 0.920102995119187 77.0626203395693 36.7395313581544)" rx="2.7" ry="4.26" cx="2.7" cy="4.26" fill="#000000" fill-opacity="0.0980392156862745" fill-rule="evenodd" stroke-opacity="0" stroke="#000000" stroke-width="0" stroke-linecap="square" stroke-linejoin="bevel"/><ellipse id="shape110" transform="matrix(0.960834783534401 -0.277121848201114 0.277121848201114 0.960834783534401 68.4439125705704 40.7102584540539)" rx="2.46" ry="3.24" cx="2.46" cy="3.24" fill="#000000" fill-opacity="0.0980392156862745" fill-rule="evenodd" stroke-opacity="0" stroke="#000000" stroke-width="0" stroke-linecap="square" stroke-linejoin="bevel"/><path id="shape21" transform="translate(79.1099948242445, 12.5999991756476)" fill="#000000" fill-opacity="0.0980392156862745" fill-rule="evenodd" stroke="none" stroke-width="0.6" stroke-linecap="square" stroke-linejoin="bevel" d="M0 9.63C0.889382 7.40322 1.21541 1.82691 0.9 0C4.28783 0.836375 12.5553 5.31467 16.65 8.73C16.518 11.3273 17.7956 14.1967 18.36 16.56C17.1869 17.5085 16.2105 18.258 14.85 18.81C11.7131 16.9538 3.51106 11.2134 0 9.63Z" sodipodi:nodetypes="cccccc"/><path id="shape22" transform="translate(45.670933347047, 102.04499636893)" fill="#34120c" fill-opacity="0.176470588235294" fill-rule="evenodd" stroke="none" stroke-width="0.6" stroke-linecap="square" stroke-linejoin="bevel" d="M0.00406504 0C-0.162031 0.570256 4.80447 3.27789 7.08406 3.915C10.8037 3.96711 18.4305 1.001 18.3641 0.435C17.9665 0.865534 1.47707 0.254975 0.00406504 0Z" sodipodi:nodetypes="cccc"/><path id="shape23" transform="translate(16.679998908715, 85.3199944179595)" fill="#000000" fill-opacity="0.0980392156862745" fill-rule="evenodd" stroke="none" stroke-width="0.6" stroke-linecap="square" stroke-linejoin="bevel" d="M22.74 14.88C19.8277 13.3719 13.3786 9.88541 10.86 6.6C9.90602 5.35556 9.67142 2.70399 9 1.44C7.00638 1.13784 3.03289 0.324325 0 0C5.62782 10.9763 12.6631 16.3014 16.8 19.32C17.9812 18.0639 20.9344 16.1109 22.74 14.88Z" sodipodi:nodetypes="cccccc"/><ellipse id="shape24" transform="translate(5.75999979481102, 5.75999979481102)" rx="56.2799979951327" ry="55.7999980122318" cx="56.2799979951327" cy="55.7999980122318" fill="none" stroke="#000000" stroke-width="1.8" stroke-linecap="square" stroke-linejoin="bevel"/><ellipse id="shape25" transform="translate(10.3199996323697, 9.59999965801838)" rx="51.9599981490244" ry="51.719998157574" cx="51.9599981490244" cy="51.719998157574" fill="none" stroke="#000000" stroke-width="1.8" stroke-linecap="square" stroke-linejoin="bevel"/><path id="shape26" transform="translate(25.5599983277314, 86.0399943708142)" fill="none" stroke="#000000" stroke-width="1.8" stroke-linecap="round" stroke-linejoin="round" d="M0 0C0.690128 9.71466 19.4428 18.325 32.25 16.62C37.1972 16.175 43.812 14.523 47.55 13.41" sodipodi:nodetypes="ccc"/><path id="shape27" transform="translate(44.9999997380765, 95.4449994444602)" fill="none" stroke="#000000" stroke-width="1.8" stroke-linecap="round" stroke-linejoin="round" d="M0 0.18C2.466 1.746 4.83005 0.783655 6.84 0C8.35495 0.971345 12.9825 2.457 15.795 0.81" sodipodi:nodetypes="ccc"/><path id="shape28" transform="translate(27.4871727583482, 73.4856253909997)" fill="none" stroke="#000000" stroke-width="1.8" stroke-linecap="square" stroke-linejoin="bevel" d="M3.89283 0.0743698C0.422432 1.30757 -0.697696 5.51936 0.412825 8.95437C1.54824 12.6922 4.94402 14.32 7.85282 13.7544C11.7504 12.8069 12.6816 9.03187 11.3028 5.11437C10.51 2.19978 6.88914 -0.48489 3.89283 0.0743698Z" sodipodi:nodetypes="ccccc"/><ellipse id="shape29" transform="translate(59.6699998645699, 66.7799956309088)" rx="9.24" ry="9.58499937289997" cx="9.24" cy="9.58499937289997" fill="none" stroke="#000000" stroke-width="1.8" stroke-linecap="square" stroke-linejoin="bevel"/><path id="shape30" transform="translate(23.3999984690518, 70.5338501237272)" fill="none" stroke="#000000" stroke-width="1.8" stroke-linecap="round" stroke-linejoin="round" d="M14.04 2.89115C11.9873 1.08596 10.0687 0.371759 7.59 0.0561452C4.89907 -0.286486 1.56094 0.998048 0 2.30615" sodipodi:nodetypes="csc"/><path id="shape31" transform="translate(54.4799964356395, 63.1310722213472)" fill="none" stroke="#000000" stroke-width="1.8" stroke-linecap="round" stroke-linejoin="round" d="M0 6.52892C2.118 4.10492 5.3369 1.89405 7.98 1.06892C10.8737 0.165573 16.368 -0.713076 23.22 0.888924" sodipodi:nodetypes="csc"/><path id="shape32" transform="translate(12.6599991806551, 17.5905522703429)" fill="none" stroke="#000000" stroke-width="1.8" stroke-linecap="round" stroke-linejoin="round" d="M0 28.2194C3.01869 24.4718 6.65685 18.8352 9.66 15.9794C13.2267 12.5878 18.7953 8.74691 23.1 6.52945C27.6629 4.17895 34.2362 1.26242 40.02 0.349447C44.6325 -0.378642 51.3695 0.13322 55.56 0.949447C59.3779 1.6931 64.2446 3.47933 67.575 5.04445C70.3739 6.3598 73.8203 8.65678 76.2 10.3094C79.2787 12.4475 83.2249 15.7576 85.74 18.5894C88.3041 21.4765 91.0214 25.4414 93.18 28.3694C95.9718 32.1565 99.1222 38.3659 101.475 42.4094" sodipodi:nodetypes="cssssssssc"/><path id="shape33" transform="translate(16.2599989361839, 44.8199984033771)" fill="none" stroke="#000000" stroke-width="1.8" stroke-linecap="round" stroke-linejoin="round" d="M0 40.44C2.745 41.205 6.96902 41.8167 9.66 42.12C8.61598 39.9933 7.31262 33.7414 6.78 30.18C6.28395 26.8631 5.808 22.623 5.82 18.975C6.036 22.0305 6.55165 28.2172 6.72 29.115C9.58835 23.2028 12.8039 12.5143 11.22 6.855C12.5611 14.1106 19.2021 25.5247 23.52 27.735C24.0129 26.7953 24.4506 25.7682 24.6 24.57C27.2694 25.8468 30.8243 27.13 34.02 27.12C35.6857 24.08 38.7217 5.14769 37.08 0C39.8183 4.81231 60.1567 18.6199 64.26 19.38C64.2232 16.1201 63.3418 11.7411 62.46 8.52C64.4882 12.4689 65.3556 30.4463 64.245 35.955C70.7844 36.9937 83.9387 32.8422 88.74 30.72C92.1013 26.8878 93.5801 19.7679 93.66 19.8C93.6799 19.6446 93.415 20.9129 93.1575 21.615C94.1825 22.2046 96.066 22.626 97.38 23.04" sodipodi:nodetypes="ccscccccccccccccc"/><path id="shape34" transform="translate(65.0699957105967, 80.4899971300329)" fill="none" stroke="#000000" stroke-width="1.8" stroke-linecap="round" stroke-linejoin="round" d="M15.99 0C15.423 4.005 12.8948 10.9643 11.07 14.28C9.33953 17.4242 4.35866 24.3245 0 28.68C0.681341 29.5255 9.69215 24.7524 11.97 23.37C10.5578 25.9926 9.495 27.735 8.37 31.02" sodipodi:nodetypes="csccc"/><path id="shape35" transform="translate(95.3999966015797, 75.959997294088)" fill="none" stroke="#000000" stroke-width="1.8" stroke-linecap="round" stroke-linejoin="round" d="M9.24 0C6.468 7.524 6.972 14.796 0 25.08" sodipodi:nodetypes="cc"/><path id="shape36" transform="translate(106.603430346737, 73.3499995730705)" fill="none" stroke="#000000" stroke-width="1.8" stroke-linecap="round" stroke-linejoin="round" d="M0.226569 0C-0.470931 4.1535 0.384069 7.5915 3.60157 7.695" sodipodi:nodetypes="cc"/><path id="shape37" transform="translate(103.139993252057, 29.6399980608006)" fill="none" stroke="#000000" stroke-width="1.8" stroke-linecap="round" stroke-linejoin="round" d="M0 0C1.206 4.968 1.794 9.912 1.8 14.64" sodipodi:nodetypes="cc"/><path id="shape38" transform="translate(56.2949996723391, 9.71999994342545)" fill="none" stroke="#000000" stroke-width="1.8" stroke-linecap="round" stroke-linejoin="round" d="M0 7.74C1.1205 5.067 2.9895 2.403 5.145 0" sodipodi:nodetypes="cc"/><path id="shape39" transform="translate(79.2449948153906, 12.7799991638677)" fill="none" stroke="#000000" stroke-width="1.8" stroke-linecap="round" stroke-linejoin="round" d="M0 9.09C0.596114 6.74783 0.985387 3.34454 0.9 0" sodipodi:nodetypes="cc"/><path id="shape40" transform="translate(93.6899966625055, 21.5549992321518)" fill="none" stroke="#000000" stroke-width="1.8" stroke-linecap="round" stroke-linejoin="round" d="M0 9.945C1.3275 9.3555 2.42151 8.99983 3.96 8.145C3.29349 6.25517 1.9395 2.889 1.71 0" sodipodi:nodetypes="ccc"/><path id="shape41" transform="translate(25.274999852889, 24.2550401566524)" fill="none" stroke="#000000" stroke-width="1.8" stroke-linecap="round" stroke-linejoin="round" d="M0 0.94496C3.1172 0.211762 6.81754 -0.129723 10.26 0.0449597" sodipodi:nodetypes="cc"/><path id="shape42" transform="translate(22.6199998683424, 54.8999996804596)" fill="none" stroke="#000000" stroke-width="1.8" stroke-linecap="round" stroke-linejoin="round" d="M0 5.16C2.35744 2.98256 6.912 0.588 10.56 0" sodipodi:nodetypes="cc"/><path id="shape43" transform="translate(50.9999997031594, 48.0801010854315)" fill="none" stroke="#000000" stroke-width="1.8" stroke-linecap="round" stroke-linejoin="round" d="M0 2.0199C4.401 -0.428101 11.064 -0.392101 17.22 0.759899" sodipodi:nodetypes="cc"/>
</svg>
