<svg xmlns="http://www.w3.org/2000/svg" viewBox="0 0 1250 1160.6" fill="#fff" alt="OSHWLab"><defs><style>.icon-logo-en_svg__cls-1{fill:#fff}</style></defs><g id="icon-logo-en_svg__\u56FE\u5C42_2" data-name="\u56FE\u5C42 2"><g id="icon-logo-en_svg___\u56FE\u5C42_2" data-name="\u56FE\u5C42 2"><g id="icon-logo-en_svg___\u56FE\u5C42_1-2" data-name="\u56FE\u5C42 1-2"><path d="M625 0 247 218.7V656l378 218.7L1003 656V218.7Zm0 852.9L265.8 645.1V229.5l143.7-83.1V562l143.7 83.1V509.3h143.7v302zm359.2-207.8-143.7 83.1V312.6l-143.7-83.1v135.8H553.2v-302L625 21.7l359.2 207.8zM0 1029.8c0-59 33.4-92.4 82.5-92.4S165 971 165 1029.8s-33.4 94.4-82.5 94.4S0 1088.8 0 1029.8m121 0c0-34.8-14.8-55.4-38.5-55.4s-38.2 20.6-38.2 55.4 14.5 57.1 38.2 57.1 38.5-22 38.5-57.1M187 1098.3l24.4-29.8c12.8 10.9 29.5 18.4 43.8 18.4 16 0 23.5-6.1 23.5-15.7 0-10.4-9.9-13.8-25.4-20.3l-23-9.7c-18.9-7.5-36.5-23.2-36.5-49.4 0-30.2 27.1-54.4 65.3-54.4 20.8 0 42.8 8 58.6 23.7l-21.5 27.1c-11.9-9-23-13.8-37-13.8-13.3 0-21.5 5.3-21.5 15s11.4 13.8 27.3 20.1l22.5 9c22.3 9 35.6 24 35.6 49.4 0 30-25.2 56.4-68.7 56.4-23.6-.1-48.7-8.8-67.4-26M353 940.8h43.3v68.4h59.3v-68.4h42.8v180h-42.8v-74.1h-59.3v74.1H353zM522.9 940.8h44.3l11.4 82 7.3 57.1h1c3.4-19.1 7-38.5 10.7-57.1l18.4-82h36.3l18.9 82c3.6 18.4 6.8 37.8 10.4 57.1h1.2c2.2-19.4 4.6-38.5 6.8-57.1l11.6-82h41.1l-31.2 180h-54.4l-16.2-78.4c-2.9-13.8-5.3-28.3-7-41.9H632c-2.2 13.5-4.4 28.1-7 41.9l-15.7 78.4h-53.5zM1009.2 1023.2c-5.5-6.1-11.9-9.1-19-9.1s-13.5 3.1-19 9.3-8.3 14.9-8.3 26.2 2.8 20 8.3 26.1 11.8 9.1 19 9.1 13.5-3.1 19-9.3 8.3-14.9 8.3-26.2-2.8-20-8.3-26.1m164.5.2c-5.5-6.2-11.9-9.3-19-9.3s-13.5 3-19 9.1-8.3 14.8-8.3 26.1 2.8 20.1 8.3 26.2 11.9 9.3 19 9.3 13.5-3 19-9.1 8.3-14.8 8.3-26.1-2.8-20.1-8.3-26.2m0 0c-5.5-6.2-11.9-9.3-19-9.3s-13.5 3-19 9.1-8.3 14.8-8.3 26.1 2.8 20.1 8.3 26.2 11.9 9.3 19 9.3 13.5-3 19-9.1 8.3-14.8 8.3-26.1-2.8-20.1-8.3-26.2m-164.5-.2c-5.5-6.1-11.9-9.1-19-9.1s-13.5 3.1-19 9.3-8.3 14.9-8.3 26.2 2.8 20 8.3 26.1 11.8 9.1 19 9.1 13.5-3.1 19-9.3 8.3-14.9 8.3-26.2-2.8-20-8.3-26.1m0 0c-5.5-6.1-11.9-9.1-19-9.1s-13.5 3.1-19 9.3-8.3 14.9-8.3 26.2 2.8 20 8.3 26.1 11.8 9.1 19 9.1 13.5-3.1 19-9.3 8.3-14.9 8.3-26.2-2.8-20-8.3-26.1m164.5.2c-5.5-6.2-11.9-9.3-19-9.3s-13.5 3-19 9.1-8.3 14.8-8.3 26.1 2.8 20.1 8.3 26.2 11.9 9.3 19 9.3 13.5-3 19-9.1 8.3-14.8 8.3-26.1-2.8-20.1-8.3-26.2m0 0c-5.5-6.2-11.9-9.3-19-9.3s-13.5 3-19 9.1-8.3 14.8-8.3 26.1 2.8 20.1 8.3 26.2 11.9 9.3 19 9.3 13.5-3 19-9.1 8.3-14.8 8.3-26.1-2.8-20.1-8.3-26.2m-164.5-.2c-5.5-6.1-11.9-9.1-19-9.1s-13.5 3.1-19 9.3-8.3 14.9-8.3 26.2 2.8 20 8.3 26.1 11.8 9.1 19 9.1 13.5-3.1 19-9.3 8.3-14.9 8.3-26.2-2.8-20-8.3-26.1m216-128.4H796.6a24.92 24.92 0 0 0-24.8 24.8v216.2a24.92 24.92 0 0 0 24.8 24.8h428.6a24.92 24.92 0 0 0 24.8-24.8V919.6a24.92 24.92 0 0 0-24.8-24.8M911.3 1121h-98.7V940.6h43.9v147h54.7v33.4Zm144.4 0h-38.2v-20.8c-9.2 15.1-21.6 22.6-37.1 22.6s-28.8-6.8-39.8-20.5-16.5-31.3-16.5-52.7 5.5-39 16.5-52.8 24.5-20.7 40.3-20.7 28.1 6.8 36.5 20.3v-18.8h38.2V1121Zm148.6-18.7c-11 13.7-24.4 20.5-40 20.5s-27.9-7.5-36.9-22.6v20.8h-38.2V930.9h38.2v65.5c8.5-13.5 20.7-20.3 36.6-20.3s29.3 6.9 40.3 20.7 16.6 31.4 16.6 52.8-5.5 38.9-16.6 52.7m-49.6-88.2c-7.2 0-13.5 3-19 9.1s-8.3 14.8-8.3 26.1 2.8 20.1 8.3 26.2 11.9 9.3 19 9.3 13.5-3 19-9.1 8.3-14.8 8.3-26.1-2.8-20.1-8.3-26.2-11.8-9.3-19-9.3m-164.5 0c-7.2 0-13.5 3.1-19 9.3s-8.3 14.9-8.3 26.2 2.8 20 8.3 26.1 11.8 9.1 19 9.1 13.5-3.1 19-9.3 8.3-14.9 8.3-26.2-2.8-20-8.3-26.1-11.9-9.1-19-9.1m19 9.1c-5.5-6.1-11.9-9.1-19-9.1s-13.5 3.1-19 9.3-8.3 14.9-8.3 26.2 2.8 20 8.3 26.1 11.8 9.1 19 9.1 13.5-3.1 19-9.3 8.3-14.9 8.3-26.2-2.8-20-8.3-26.1m164.5.2c-5.5-6.2-11.9-9.3-19-9.3s-13.5 3-19 9.1-8.3 14.8-8.3 26.1 2.8 20.1 8.3 26.2 11.9 9.3 19 9.3 13.5-3 19-9.1 8.3-14.8 8.3-26.1-2.8-20.1-8.3-26.2m0 0c-5.5-6.2-11.9-9.3-19-9.3s-13.5 3-19 9.1-8.3 14.8-8.3 26.1 2.8 20.1 8.3 26.2 11.9 9.3 19 9.3 13.5-3 19-9.1 8.3-14.8 8.3-26.1-2.8-20.1-8.3-26.2m-164.5-.2c-5.5-6.1-11.9-9.1-19-9.1s-13.5 3.1-19 9.3-8.3 14.9-8.3 26.2 2.8 20 8.3 26.1 11.8 9.1 19 9.1 13.5-3.1 19-9.3 8.3-14.9 8.3-26.2-2.8-20-8.3-26.1m0 0c-5.5-6.1-11.9-9.1-19-9.1s-13.5 3.1-19 9.3-8.3 14.9-8.3 26.2 2.8 20 8.3 26.1 11.8 9.1 19 9.1 13.5-3.1 19-9.3 8.3-14.9 8.3-26.2-2.8-20-8.3-26.1m0 0c-5.5-6.1-11.9-9.1-19-9.1s-13.5 3.1-19 9.3-8.3 14.9-8.3 26.2 2.8 20 8.3 26.1 11.8 9.1 19 9.1 13.5-3.1 19-9.3 8.3-14.9 8.3-26.2-2.8-20-8.3-26.1" class="icon-logo-en_svg__cls-1"></path></g></g></g></svg>